<svg width="256" height="40" viewBox="0 0 256 40" fill="none" xmlns="http://www.w3.org/2000/svg">
<path d="M12.627 12.9985L18.4642 16.457C19.4076 17.0158 19.9884 18.0427 19.99 19.1536L20.0066 30.8308L27 26.8323V15.234C27 14.119 26.4165 13.0887 25.4689 12.5296L19.484 9L12.627 12.9985Z" fill="#202020"/>
<path d="M19.373 27.0015L13.5358 23.543C12.5924 22.9842 12.0116 21.9573 12.01 20.8464L11.9934 9.16923L4.99997 13.1677L4.99997 24.766C4.99997 25.881 5.58345 26.9113 6.53106 27.4704L12.516 31L19.373 27.0015Z" fill="#202020"/>
<path d="M37.776 18.096H39.12L38.832 21.84C38.752 22.896 38.8 23.52 39.152 23.52C39.648 23.52 39.872 22.784 39.952 20.8C40.064 17.808 39.056 15.984 37.36 15.984C35.328 15.984 33.76 18.192 33.664 21.2C33.52 25.264 35.632 26.72 38.336 25.2L38.896 26.496C35.584 28.496 32.032 26.272 32.224 21.2C32.352 17.344 34.56 14.64 37.392 14.64C39.936 14.64 41.488 17.008 41.376 20.72C41.232 25.216 38.192 25.44 37.648 23.664C37.344 24.288 36.752 24.704 36.128 24.704C34.832 24.704 34.048 23.296 34.272 21.36C34.48 19.392 35.488 17.952 36.688 17.952C37.184 17.952 37.552 18.208 37.728 18.592L37.776 18.096ZM35.744 21.312C35.616 22.64 35.872 23.488 36.416 23.488C36.912 23.488 37.296 22.64 37.424 21.312C37.568 19.968 37.328 19.104 36.8 19.104C36.304 19.104 35.888 19.968 35.744 21.312ZM42.6978 20.096C43.0178 18.352 44.4418 17.328 46.2977 17.328C48.4098 17.328 49.7218 18.544 49.7218 20.88V23.728C49.7218 24.144 49.8818 24.32 50.2338 24.32H50.6018V26H50.1538C49.1298 26 48.5218 25.456 48.3618 24.704C48.0258 25.52 46.9698 26.192 45.6738 26.192C43.9298 26.192 42.5538 25.28 42.5538 23.776C42.5538 22.048 43.8018 21.392 45.8818 21.024L47.8178 20.656C47.7858 19.568 47.1778 19.024 46.2338 19.024C45.4178 19.024 44.8258 19.504 44.6658 20.208L42.6978 20.096ZM44.5538 23.664C44.5858 24.176 45.0178 24.56 45.9298 24.56C47.0338 24.544 47.8338 23.808 47.8338 22.528V22.224L46.3298 22.496C45.2578 22.672 44.5378 22.832 44.5538 23.664ZM52.3555 14.64H54.2435V18.704C54.7555 17.808 55.5395 17.328 56.6915 17.328C58.8675 17.328 60.0515 19.264 60.0515 21.76C60.0515 24.256 58.8675 26.192 56.6915 26.192C55.4755 26.192 54.6595 25.68 54.1955 24.768L54.1475 26H52.3555V14.64ZM54.0995 21.76C54.0995 23.232 54.7235 24.496 56.0675 24.496C57.4435 24.496 58.0515 23.264 58.0515 21.76C58.0515 20.224 57.4435 18.992 56.0675 18.992C54.7235 18.992 54.0995 20.24 54.0995 21.76ZM62.3173 14.64H64.2053V18.608C64.6693 17.744 65.5493 17.328 66.5253 17.328C68.3173 17.328 69.2292 18.64 69.2292 20.544V26H67.3093V21.008C67.3093 19.616 66.8933 18.896 65.8853 18.896C64.8453 18.896 64.2053 19.616 64.2053 21.008V26H62.3173V14.64ZM78.551 26H76.775L76.727 24.64C76.295 25.664 75.431 26.192 74.359 26.192C72.599 26.192 71.687 24.88 71.687 22.976V17.52H73.607V22.56C73.607 23.952 74.039 24.688 75.015 24.688C76.023 24.688 76.647 23.952 76.647 22.56V17.52H78.551V26ZM86.3048 20.224C86.1608 19.44 85.5208 19.024 84.6568 19.024C83.9208 19.024 83.2968 19.36 83.3288 20C83.3608 20.672 84.1768 20.848 85.2808 21.12C86.9448 21.504 88.3848 22.256 88.3848 23.728C88.3848 25.392 86.8968 26.192 84.9448 26.192C82.8808 26.192 81.2648 25.056 81.1368 23.264L83.1688 23.168C83.2648 24 83.9848 24.496 84.9448 24.496C85.7288 24.496 86.3848 24.304 86.3848 23.664C86.3848 23.008 85.5208 22.848 84.5128 22.592C82.7688 22.176 81.3448 21.456 81.3448 20.016C81.3288 18.352 82.8648 17.328 84.8008 17.328C86.6248 17.328 88.0808 18.416 88.3368 20.128L86.3048 20.224ZM91.0985 14.64H92.9865V18.608C93.4505 17.744 94.3305 17.328 95.3065 17.328C97.0985 17.328 98.0105 18.64 98.0105 20.544V26H96.0905V21.008C96.0905 19.616 95.6745 18.896 94.6665 18.896C93.6265 18.896 92.9865 19.616 92.9865 21.008V26H91.0985V14.64ZM100.26 20.096C100.58 18.352 102.004 17.328 103.86 17.328C105.972 17.328 107.284 18.544 107.284 20.88V23.728C107.284 24.144 107.444 24.32 107.796 24.32H108.164V26H107.716C106.692 26 106.084 25.456 105.924 24.704C105.588 25.52 104.532 26.192 103.236 26.192C101.492 26.192 100.116 25.28 100.116 23.776C100.116 22.048 101.364 21.392 103.444 21.024L105.38 20.656C105.348 19.568 104.74 19.024 103.796 19.024C102.98 19.024 102.388 19.504 102.228 20.208L100.26 20.096ZM102.116 23.664C102.148 24.176 102.58 24.56 103.492 24.56C104.596 24.544 105.396 23.808 105.396 22.528V22.224L103.892 22.496C102.82 22.672 102.1 22.832 102.116 23.664ZM110.254 17.52H111.982L112.046 18.896C112.494 17.856 113.342 17.328 114.446 17.328C116.238 17.328 117.166 18.64 117.166 20.544V26H115.262V20.96C115.262 19.568 114.83 18.832 113.838 18.832C112.782 18.832 112.142 19.568 112.142 20.96V26H110.254V17.52ZM119.448 20.096C119.768 18.352 121.192 17.328 123.048 17.328C125.16 17.328 126.472 18.544 126.472 20.88V23.728C126.472 24.144 126.632 24.32 126.984 24.32H127.352V26H126.904C125.88 26 125.272 25.456 125.112 24.704C124.776 25.52 123.72 26.192 122.424 26.192C120.68 26.192 119.304 25.28 119.304 23.776C119.304 22.048 120.552 21.392 122.632 21.024L124.568 20.656C124.536 19.568 123.928 19.024 122.984 19.024C122.168 19.024 121.576 19.504 121.416 20.208L119.448 20.096ZM121.304 23.664C121.336 24.176 121.768 24.56 122.68 24.56C123.784 24.544 124.584 23.808 124.584 22.528V22.224L123.08 22.496C122.008 22.672 121.288 22.832 121.304 23.664ZM135.266 25.392C135.266 27.2 134.29 28.4 132.578 28.4H129.634V26.72H132.306C132.978 26.72 133.378 26.192 133.378 25.392V19.2H129.65V17.52H135.266V25.392ZM133.33 16.432V14.64H135.298V16.432H133.33ZM139.035 27.44L143.771 14H145.627L140.891 27.44H139.035ZM151.765 17.52L151.909 19.12C152.181 18.016 152.885 17.52 154.005 17.52H155.781V19.2H154.165C152.933 19.2 152.421 19.792 152.421 21.072V24.32H155.013V26H148.405V24.32H150.533V19.2H148.405V17.52H151.765ZM157.599 21.76C157.599 19.056 159.167 17.328 161.631 17.328C163.615 17.328 165.423 18.64 165.519 21.696V22.24H159.631C159.743 23.648 160.463 24.496 161.631 24.496C162.399 24.496 163.071 24.032 163.375 23.264L165.391 23.44C164.911 25.12 163.423 26.192 161.631 26.192C159.167 26.192 157.599 24.464 157.599 21.76ZM159.679 20.912H163.471C163.247 19.584 162.495 19.024 161.631 19.024C160.575 19.024 159.871 19.712 159.679 20.912ZM167.417 20.096C167.737 18.352 169.161 17.328 171.016 17.328C173.129 17.328 174.441 18.544 174.441 20.88V23.728C174.441 24.144 174.601 24.32 174.953 24.32H175.321V26H174.873C173.849 26 173.241 25.456 173.081 24.704C172.745 25.52 171.689 26.192 170.393 26.192C168.649 26.192 167.273 25.28 167.273 23.776C167.273 22.048 168.521 21.392 170.601 21.024L172.537 20.656C172.505 19.568 171.897 19.024 170.953 19.024C170.137 19.024 169.545 19.504 169.385 20.208L167.417 20.096ZM169.273 23.664C169.305 24.176 169.737 24.56 170.649 24.56C171.753 24.544 172.553 23.808 172.553 22.528V22.224L171.049 22.496C169.977 22.672 169.257 22.832 169.273 23.664ZM182.722 20.704C182.546 19.68 181.81 19.024 180.898 19.024C179.618 19.024 178.882 20.064 178.882 21.76C178.882 23.456 179.618 24.496 180.898 24.496C181.858 24.496 182.594 23.808 182.754 22.736L184.754 22.832C184.514 24.864 182.914 26.192 180.898 26.192C178.45 26.192 176.882 24.464 176.882 21.76C176.882 19.056 178.45 17.328 180.898 17.328C182.85 17.328 184.482 18.624 184.706 20.592L182.722 20.704ZM188.78 15.28H190.668V17.52H193.852V19.2H190.668V23.168C190.668 23.888 191.052 24.32 191.756 24.32H193.836V26H191.5C189.628 26 188.78 25.04 188.78 23.392V19.2H186.396V17.52H188.78V15.28ZM197.142 20.112H202.646V21.856H197.142V20.112ZM206.224 14.64H208.112V18.608C208.576 17.744 209.456 17.328 210.432 17.328C212.224 17.328 213.135 18.64 213.135 20.544V26H211.216V21.008C211.216 19.616 210.8 18.896 209.792 18.896C208.752 18.896 208.112 19.616 208.112 21.008V26H206.224V14.64ZM219.081 26.192C216.713 26.192 215.065 24.416 215.065 21.76C215.065 19.104 216.713 17.328 219.081 17.328C221.449 17.328 223.097 19.104 223.097 21.76C223.097 24.416 221.449 26.192 219.081 26.192ZM217.065 21.76C217.065 23.456 217.817 24.496 219.081 24.496C220.345 24.496 221.097 23.456 221.097 21.76C221.097 20.064 220.345 19.024 219.081 19.024C217.817 19.024 217.065 20.064 217.065 21.76ZM228.675 26.192C226.307 26.192 224.659 24.416 224.659 21.76C224.659 19.104 226.307 17.328 228.675 17.328C231.043 17.328 232.691 19.104 232.691 21.76C232.691 24.416 231.043 26.192 228.675 26.192ZM226.659 21.76C226.659 23.456 227.411 24.496 228.675 24.496C229.939 24.496 230.691 23.456 230.691 21.76C230.691 20.064 229.939 19.024 228.675 19.024C227.411 19.024 226.659 20.064 226.659 21.76ZM234.605 14.64H236.493V21.2L239.773 17.52H242.333L239.021 21.104L242.509 26H240.189L237.741 22.48L236.493 23.92V26H234.605V14.64ZM249.399 20.224C249.255 19.44 248.615 19.024 247.751 19.024C247.015 19.024 246.391 19.36 246.423 20C246.455 20.672 247.271 20.848 248.375 21.12C250.039 21.504 251.479 22.256 251.479 23.728C251.479 25.392 249.991 26.192 248.039 26.192C245.975 26.192 244.359 25.056 244.231 23.264L246.263 23.168C246.359 24 247.079 24.496 248.039 24.496C248.823 24.496 249.479 24.304 249.479 23.664C249.479 23.008 248.615 22.848 247.607 22.592C245.863 22.176 244.439 21.456 244.439 20.016C244.423 18.352 245.959 17.328 247.895 17.328C249.719 17.328 251.175 18.416 251.431 20.128L249.399 20.224Z" fill="#202020"/>
</svg>
